<svg height="1024" preserveAspectRatio="none" viewBox="0 0 1024 1024" width="1024" xmlns="http://www.w3.org/2000/svg"><path d="m969.6 351.25q-8.6-20.85-19.4-40.85-6.1-11.35-12.9-22.4-29.35-47.55-71.55-89.8-138.25-138.25-333.8-138.25-195.5 0-333.75 138.25-138.25 138.25-138.25 333.75 0 195.55 138.25 333.8 138.25 138.2 333.75 138.2 195.55 0 333.8-138.2 76.15-76.2 110.35-169.75 27.85-76.25 27.85-164.05 0-67.35-16.4-127.95-1.85-6.85-3.9-13.6-6.15-19.95-14.05-39.15z" fill-opacity=".098039"/><path d="m969.7 392q-1.75-6.85-3.65-13.6-1.52421875-5.28554687-3.2-10.55-2.47128906-7.946875-5.25-15.8-9.75-27.55-23.15-53.65-5.8-11.35-12.3-22.4-30.65-52-76.35-97.75-109-109-253.65-132.05-24.5-3.9-50.05-5.35-14.9-.85-30.1-.85-14.1 0-27.9.75-177.55 9.2-305.85 137.5-138.25 138.25-138.25 333.75 0 195.55 138.25 333.8 84.79003906 84.75703125 191.1 117.55 54.53808594 16.81308594 114.75 19.95.2 0 .4 0 12.15.6 24.5.7 1.5 0 3 0 15.25 0 30.1-.8 3.5-.2 6.95-.45 30.05-2.15 58.7-7.7 11.8-2.3 23.4-5.15 120.6-30.05 214.65-124.1 72.9-72.95 107.35-161.8 27.75-71.6 30.55-153.5.3-9.2.3-18.5 0-1 0-2 0-.5 0-1-.35-61.3-14.3-117z" fill="#d9582a"/><path d="m984 510q0-.5 0-1-.13945312-24.41210937-2.45-47.95l-178.5-178.5-384.05-58.55-155 73 42.75 425 259.25 259.25q21.23613281-2.22617187 41.75-6.2 11.8-2.3 23.4-5.15 120.6-30.05 214.65-124.1 72.9-72.95 107.35-161.8 27.75-71.6 30.55-153.5.3-9.2.3-18.5 0-1 0-2z" fill-opacity=".2"/><g transform="matrix(2.22546387 0 0 2.22546387 212.05 -627)"><path d="m36.7 382.35q-8.45 1.95-14.55 8.15l-18.8 19q-.9.95-1.1 2.2-.25 1.25.25 2.4l7.1 15.8-9.65 26.45 34.8 132.7q2.5 9.4 8 17.4 5.55 8 13.45 13.6l21.65 15.05q25.95 17.8 47.35 31.7 4.2 3.35 9.55 3.35 5.35 0 9.55-3.35 38.5-25.2 68.95-46.85 7.9-5.6 13.4-13.6 5.5-8 8-17.4l34.9-132.75-9.75-26.5 6.8-15.2q.65-1.45.35-3.05-.3-1.6-1.4-2.75l-18.45-18.65q-6.1-6.15-14.45-8.1-8.45-1.95-16.6.9l-5.15 1.8-28.15-30.5-47.8-.25-48.4.35-28.15 30.75-5.05-1.75q-8.15-2.9-16.65-.9z" fill="#fff"/><path d="m178.3 567.4q-.55-1.2-1.85-1.6l-15.65-7.95q-5.2-2.6-9.7-4.4l-8.5-3.5q-2.35-1.1-5.6-2.05h-3.4q-3.1.85-5.65 2.05l-8.55 3.5q-5.3 2.25-9.6 4.45l-15.7 8.2q-1.2.35-1.75 1.5-.6 1.1-.2 2.25.35 1.1 1.55 1.8l13.65 9.6q4.7 3.3 8.35 6.65l15.5 13.55q1.75 1.45 4 1.45 2.3 0 4-1.45l15.7-13.7q3.55-3.15 8.35-6.65l13.65-9.75q1.1-.5 1.5-1.7.45-1.15-.1-2.25z" fill="#d9582a"/><path d="m207.95 438.6q.1.7-1.95 1.5l-38.05 14.4q-4.5 1.9-6.9 6.25-1.55 4.6.6 9.05l12.2 22.85q1 2.05.5 4.2-.55 2.2-2.4 3.5l-31.3 21.15q-1.6 1.65-1.55 3.95.05 2.3 1.7 3.9l14 12.65q4.15 3.5 8.9 5.85l17.3 8.25q2.2.9 4.6.6 2.35-.3 4.3-1.7l4.85-4q5.7-4.65 8.3-11.6l1-2.8q1.55-4.95-.25-9.9l-5.1-12.05q-.85-2.25-.4-4.65.45-2.35 2-4.2l31-33.05q3.85-4.1 7-8.05.65-1.4.95-2.6l.45-1.4q0-3.05-.35-5.7-2.05-5.05-5.05-9.5l-8.9-13.05q-3.8-5.5-6.3-8.55l-11.9-14.9q-1.35-1.85-3.5-4.1h-.25q-2.4.4-5.3 1l-26.1 5q-3.85.2-7.75-1.1l-14.35-4.65q-5.5-1.75-10.25-2.85-4.55-.45-9.1 0-4.75 1.1-10.25 2.85l-14.35 4.65q-3.8 1.4-7.75 1.15l-26.15-5q-5.25-1-5.3-.95h-.2q-1.8 1.8-3.55 4.1l-11.85 14.9q-3.25 3.95-6.3 8.55l-8.9 13q-2.3 3.45-4.15 7-1.2 4.05-1.2 8.25l.4 1.4q.45 1.75.85 2.7 4.6 5.45 7 8.05l31.05 33q1.6 1.85 2 4.2.4 2.35-.45 4.65l-5.05 12.05q-1.8 4.8-.25 9.9l1 2.8q2.55 6.9 8.25 11.55l4.9 4q1.9 1.4 4.3 1.65 2.35.3 4.55-.6l17.35-8.25q4.65-2.35 8.85-5.9l13.9-12.5q1.7-1.55 1.8-3.85.15-2.3-1.4-4l-.15-.15-31.3-21.1q-1.85-1.3-2.35-3.5-.55-2.15.45-4.2l12.15-22.8q2.15-4.4.6-9.1-2.3-4.3-6.9-6.25l-38.1-14.35q-2.05-.8-1.95-1.55.1-.75 2.3-.85l22.35-2.2q5.25-.35 10.45.9l19.45 5.45q2.15.65 3.35 2.55 1.2 1.9.8 4.1l-7.65 41.75q-.75 3.4-.35 7.05.2.75 1.9 1.55 1.65.8 3.85 1.35l11.9 2.55q5.2 1 10.4 0l10.65-2.4q2.15-.5 3.85-1.35 1.7-.9 1.95-1.65.35-3.5-.4-7.05l-7.7-41.75q-.35-2.2.85-4.1 1.15-1.9 3.3-2.55l19.5-5.45q5.05-1.25 10.4-.95l22.4 2.1q2.2.2 2.25.9z" fill="#d9582a"/></g></svg>